<svg xmlns="http://www.w3.org/2000/svg" xmlns:xlink="http://www.w3.org/1999/xlink" width="77" height="77" viewBox="0 0 77 77">
    <defs>
        <filter id="prefix__a" width="231.1%" height="231.1%" x="-65.6%" y="-41.1%" filterUnits="objectBoundingBox">
            <feMorphology in="SourceAlpha" radius="5" result="shadowSpreadOuter1"/>
            <feOffset dy="11" in="shadowSpreadOuter1" result="shadowOffsetOuter1"/>
            <feGaussianBlur in="shadowOffsetOuter1" result="shadowBlurOuter1" stdDeviation="13"/>
            <feColorMatrix in="shadowBlurOuter1" values="0 0 0 0 0 0 0 0 0 0.275337479 0 0 0 0 0.550674957 0 0 0 1 0"/>
        </filter>
        <circle id="prefix__b" cx="22.5" cy="22.5" r="22.5"/>
        <path id="prefix__c" d="M10 7c.552 0 1 .448 1 1s-.448 1-1 1-1-.448-1-1 .448-1 1-1zm4 0c.552 0 1 .448 1 1s-.448 1-1 1-1-.448-1-1 .448-1 1-1zM6 7c.552 0 1 .448 1 1s-.448 1-1 1-1-.448-1-1 .448-1 1-1zm12 6c0 .551-.449 1-1 1H6.554c-.543 0-1.077.148-1.544.428L2 16.234V3c0-.551.449-1 1-1h14c.551 0 1 .449 1 1v10zM17 0H3C1.346 0 0 1.346 0 3v15c0 .36.194.693.507.87.153.087.323.13.493.13.178 0 .356-.047.515-.143l4.524-2.714c.156-.094.334-.143.515-.143H17c1.654 0 3-1.346 3-3V3c0-1.654-1.346-3-3-3z"/>
    </defs>
    <g fill="none" fill-rule="evenodd" transform="matrix(-1 0 0 1 61 5)">
        <use fill="#000" filter="url(#prefix__a)" xlink:href="#prefix__b"/>
        <use fill="#FFF" xlink:href="#prefix__b"/>
        <g transform="translate(13 13)">
            <use fill="#312FD8" xlink:href="#prefix__c"/>
        </g>
    </g>
</svg>
