<svg xmlns="http://www.w3.org/2000/svg" width="12" height="11" viewBox="0 0 12 11">
    <path fill="#E2EFFF" fill-rule="evenodd" d="M11.93 4.648c-.02-.035-.04-.064-.06-.1-.034-.07-.078-.135-.13-.193-.034-.031-.07-.06-.11-.083L9.07.48C8.718.013 8.081-.134 7.56.132c-.247.096-.438.298-.517.551-.08.253-.04.529.107.749l1.74 2.583H1c-.552 0-1 .447-1 1 0 .552.448 1 1 1h7.89L7.15 8.597c-.147.22-.186.495-.107.748.08.253.27.456.517.552.521.264 1.157.118 1.51-.348l2.54-3.762c.016-.013.03-.029.04-.047.086-.073.16-.16.22-.255.066-.115.103-.243.11-.374.008-.025.011-.037.01-.05 0-.015.01-.03.01-.045 0-.016-.01-.031-.01-.046.001-.013-.002-.025-.01-.035-.006-.116-.023-.203-.05-.287z"/>
</svg>
