<svg xmlns="http://www.w3.org/2000/svg" xmlns:xlink="http://www.w3.org/1999/xlink" width="17" height="17" viewBox="0 0 17 17">
    <defs>
        <path id="prefix__a" d="M11.572 15.479c.83-1.186 1.694-2.93 1.867-5.187h2.339c-.303 2.416-1.97 4.41-4.206 5.187zm-8.35-5.187H5.59c.163 2.265 1.016 4.002 1.857 5.194-2.246-.774-3.92-2.771-4.226-5.194zm4.25-6.786c-.833 1.186-1.705 2.936-1.879 5.202H3.221c.306-2.432 1.993-4.435 4.25-5.202zm-.284 5.202c.242-2.59 1.567-4.393 2.333-5.227.791.848 2.096 2.635 2.322 5.227H7.188zm0 1.584h4.657c-.242 2.594-1.57 4.397-2.336 5.231-.828-.879-2.1-2.641-2.32-5.231zm8.59-1.584H13.44c-.162-2.255-1.006-3.987-1.843-5.176 2.223.783 3.878 2.77 4.18 5.176zm1.639.792c0-4.357-3.54-7.902-7.895-7.915h-.01L9.5 1.582c-4.365 0-7.917 3.553-7.917 7.917 0 4.365 3.552 7.917 7.917 7.917l.012-.001h.01c4.355-.013 7.895-3.559 7.895-7.916z"/>
    </defs>
    <g fill="none" fill-rule="evenodd" transform="translate(-1 -1)">
        <use fill="#192038" xlink:href="#prefix__a"/>
    </g>
</svg>
