<svg xmlns="http://www.w3.org/2000/svg" xmlns:xlink="http://www.w3.org/1999/xlink" width="14" height="14" viewBox="0 0 14 14">
    <defs>
        <filter id="prefix__a" width="115.7%" height="108.8%" x="-7.9%" y="-2.8%" filterUnits="objectBoundingBox">
            <feMorphology in="SourceAlpha" radius="5" result="shadowSpreadOuter1"/>
            <feOffset dy="11" in="shadowSpreadOuter1" result="shadowOffsetOuter1"/>
            <feGaussianBlur in="shadowOffsetOuter1" result="shadowBlurOuter1" stdDeviation="13"/>
            <feColorMatrix in="shadowBlurOuter1" values="0 0 0 0 0.917627526 0 0 0 0 0.921526076 0 0 0 0 0.933221726 0 0 0 0.535580842 0"/>
        </filter>
        <filter id="prefix__c" width="115.7%" height="125.5%" x="-7.9%" y="-8%" filterUnits="objectBoundingBox">
            <feMorphology in="SourceAlpha" radius="5" result="shadowSpreadOuter1"/>
            <feOffset dy="11" in="shadowSpreadOuter1" result="shadowOffsetOuter1"/>
            <feGaussianBlur in="shadowOffsetOuter1" result="shadowBlurOuter1" stdDeviation="13"/>
            <feComposite in="shadowBlurOuter1" in2="SourceAlpha" operator="out" result="shadowBlurOuter1"/>
            <feColorMatrix in="shadowBlurOuter1" values="0 0 0 0 0.682989035 0 0 0 0 0.706814119 0 0 0 0 0.754464286 0 0 0 0.0926460598 0"/>
        </filter>
        <path id="prefix__b" d="M0 0H375V667H0z"/>
        <path id="prefix__d" d="M0 0H375V231H0z"/>
        <linearGradient id="prefix__e" x1="97.28%" x2="0%" y1="31.027%" y2="67.64%">
            <stop offset="0%" stop-color="#DEEDF0"/>
            <stop offset="100%" stop-color="#F9FBFF"/>
        </linearGradient>
    </defs>
    <g fill="none" fill-rule="evenodd" transform="translate(-341 -120)">
        <path fill="#F7FBFF" d="M0 0H375V667H0z"/>
        <use fill="#000" filter="url(#prefix__a)" xlink:href="#prefix__b"/>
        <use fill="#FFF" xlink:href="#prefix__b"/>
        <use fill="#000" filter="url(#prefix__c)" xlink:href="#prefix__d"/>
        <path fill="url(#prefix__e)" stroke="#E5ECED" stroke-linejoin="square" d="M0.5 0.5H374.5V230.5H0.5z"/>
        <g transform="translate(341 120)">
            <circle cx="7" cy="7" r="7" fill="#DEE0E4"/>
            <path fill="#9AA2B1" d="M7.248 8.08h-.875c-.009-.115-.018-.21-.018-.333 0-.525.202-.954.71-1.322l.402-.288c.288-.21.41-.464.41-.762 0-.455-.305-.883-.944-.883-.648 0-.989.498-.989.997 0 .131.018.298.053.394l-.99-.07c-.034-.123-.052-.263-.052-.403 0-.875.657-1.828 1.978-1.828 1.295 0 1.995.857 1.995 1.75 0 .69-.368 1.18-.875 1.54l-.376.262c-.29.201-.438.49-.438.831 0 .018 0 .062.009.114zM6.18 9.34c0-.35.28-.648.64-.648.35 0 .638.297.638.647 0 .35-.289.639-.639.639-.359 0-.639-.289-.639-.639z"/>
        </g>
    </g>
</svg>
