<svg xmlns="http://www.w3.org/2000/svg" xmlns:xlink="http://www.w3.org/1999/xlink" width="32" height="33" viewBox="0 0 32 33">
    <defs>
        <path id="prefix__a" d="M0 0.019L31.591 0.019 31.591 31.6 0 31.6z"/>
    </defs>
    <g fill="none" fill-rule="evenodd">
        <text font-family="VarelaRound-Regular, Varela Round" font-size="20" transform="translate(-7 -21)">
            <tspan x="28.57" y="67" fill="#333"> יש אלף סיבות למה לא לדווח, </tspan> <tspan x="26" y="93" fill="#333">אבל רק יש סיבה אחת חשובה למה כן.</tspan> <tspan x="70.44" y="119" fill="#FF2E55">הדיווח שלך יכול להציל חיים</tspan>
        </text>
        <g>
            <g transform="translate(-7 -21) translate(7 21) translate(0 .381)">
                <mask id="prefix__b" fill="#fff">
                    <use xlink:href="#prefix__a"/>
                </mask>
                <path fill="#312FD8" d="M28.749 6.776c4.15 5.94 3.718 13.942-1.046 19.4l-1.535 1.536c-5.287 4.61-12.981 5.178-18.889 1.397C1.371 25.327-1.334 18.1.639 11.369 2.61 4.64 8.785.016 15.8.02c4.023-.007 7.896 1.53 10.82 4.296l2.128 2.461z" mask="url(#prefix__b)" opacity=".3"/>
            </g>
            <path fill="#312FD8" d="M10.138 5.028c1.753-.897 3.694-1.363 5.663-1.36 6.912.008 12.514 5.61 12.523 12.523.006 2.946-1.036 5.799-2.94 8.047l-1.536 1.536c-1.823 1.54-4.052 2.524-6.419 2.83h-3.256c-4.853-.633-8.89-4.037-10.337-8.713-1.446-4.675-.035-9.764 3.612-13.028l2.69-1.835z" opacity=".331" transform="translate(-7 -21) translate(7 21)"/>
            <path fill="#312FD8" d="M10.514 23.78c3.338 2.34 7.818 2.205 11.01-.331l1.535-1.536c1.296-1.625 2-3.643 1.998-5.723.005-3.99-2.547-7.534-6.333-8.794-3.786-1.26-7.953.048-10.34 3.246-2.388 3.197-2.457 7.564-.174 10.836l2.304 2.303z" transform="translate(-7 -21) translate(7 21)"/>
            <path fill="#FF2E55" d="M13.516 19.465c1.443 1.01 3.378.952 4.758-.143l.663-.663c.56-.702.865-1.574.864-2.472.002-1.723-1.101-3.253-2.737-3.797-1.636-.544-3.437.02-4.468 1.401-1.032 1.38-1.062 3.267-.075 4.68l.995.994z" transform="translate(-7 -21) translate(7 21)"/>
            <path fill="#5D70F1" d="M8.722 4.212c.902 0 1.633.73 1.633 1.633 0 .902-.73 1.634-1.633 1.634-.902 0-1.633-.732-1.633-1.634 0-.902.731-1.633 1.633-1.633" transform="translate(-7 -21) translate(7 21)"/>
            <path fill="#EEC31B" d="M15.8 27.08c.903 0 1.634.732 1.634 1.634 0 .902-.731 1.634-1.633 1.634s-1.634-.732-1.634-1.634c0-.902.732-1.634 1.634-1.634" transform="translate(-7 -21) translate(7 21)"/>
            <path fill="#13B7E4" d="M27.78 4.212c.902 0 1.633.73 1.633 1.633 0 .902-.731 1.634-1.633 1.634s-1.634-.732-1.634-1.634c0-.902.732-1.633 1.634-1.633" transform="translate(-7 -21) translate(7 21)"/>
            <path fill="#F093ED" d="M9.267 21.091c.902 0 1.633.732 1.633 1.634 0 .902-.731 1.633-1.633 1.633s-1.634-.731-1.634-1.633.732-1.634 1.634-1.634" transform="translate(-7 -21) translate(7 21)"/>
        </g>
    </g>
</svg>
